<?xml version="1.0" encoding="UTF-8"?>
<svg version="1.1" xmlns="http://www.w3.org/2000/svg" width="301" height="403">
<path d="M0 0 C0.68301178 -0.00817749 1.36602356 -0.01635498 2.06973267 -0.02478027 C4.34050613 -0.04968367 6.61121669 -0.0661663 8.88208008 -0.08056641 C9.65698603 -0.08589008 10.43189198 -0.09121376 11.23027992 -0.09669876 C15.33498776 -0.12345697 19.43966497 -0.14281972 23.54443359 -0.15722656 C27.7804429 -0.17384472 32.01566966 -0.2185899 36.25138378 -0.26959801 C39.51055262 -0.30330333 42.76953694 -0.31480776 46.02886391 -0.32045364 C47.58976506 -0.32716149 49.15065426 -0.34237168 50.71138573 -0.36634445 C52.90198112 -0.39806081 55.09048412 -0.39802419 57.28125 -0.390625 C58.5262175 -0.39871185 59.771185 -0.40679871 61.05387878 -0.41513062 C65.59468706 0.39443857 67.20087232 1.98083558 70.46411133 5.19287109 C71.95263672 7.41821289 71.95263672 7.41821289 72.99926758 9.70458984 C73.40290527 10.57519043 73.80654297 11.44579102 74.22241211 12.34277344 C74.63217285 13.28330566 75.04193359 14.22383789 75.46411133 15.19287109 C75.90094238 16.19398926 76.33777344 17.19510742 76.7878418 18.2265625 C78.18092744 21.47742914 79.54553792 24.73890291 80.90161133 28.00537109 C83.61820425 34.5352699 86.36206243 41.0360005 89.35083008 47.44677734 C93.02271773 55.32915937 96.42880403 63.31991665 99.83911133 71.31787109 C100.50619069 72.87926407 101.17334622 74.4406245 101.84057617 76.00195312 C103.43948206 79.74535687 105.03568193 83.48990562 106.63037109 87.23510742 C107.370577 88.97323661 108.11161964 90.71100942 108.8527832 92.44873047 C112.03880938 99.92464411 115.19155197 107.38784738 118.02661133 115.00537109 C120.25726203 120.93101122 123.00850422 126.48269504 125.91333008 132.09912109 C128.09592265 136.4533108 129.46411133 139.27181659 129.46411133 144.19287109 C130.12411133 144.19287109 130.78411133 144.19287109 131.46411133 144.19287109 C131.7210376 144.82265869 131.97796387 145.45244629 132.24267578 146.10131836 C133.42002455 148.98626006 134.59831068 151.87081804 135.77661133 154.75537109 C136.38279297 156.24133789 136.38279297 156.24133789 137.0012207 157.75732422 C137.79161826 159.69154914 138.58467864 161.62468843 139.38061523 163.55664062 C140.04749459 165.17921009 140.70756001 166.80462418 141.35620117 168.43457031 C142.61560624 171.98323755 142.61560624 171.98323755 145.46411133 174.19287109 C145.65070313 173.35344971 145.65070313 173.35344971 145.84106445 172.49707031 C146.51755774 169.99521154 147.42505373 167.71353152 148.43286133 165.32568359 C148.83480713 164.36815186 149.23675293 163.41062012 149.65087891 162.42407227 C150.08424561 161.39902588 150.5176123 160.37397949 150.96411133 159.31787109 C151.87495519 157.15019115 152.78509569 154.98221553 153.69458008 152.81396484 C154.15654785 151.71294434 154.61851562 150.61192383 155.09448242 149.47753906 C157.18742109 144.45821698 159.23079838 139.41903572 161.27661133 134.38037109 C163.84662553 128.06490984 166.4755886 121.80093189 169.35473633 115.61865234 C171.01625509 111.98554265 172.53499918 108.29596804 174.05786133 104.60302734 C178.23912518 94.46346251 182.52720981 84.37528855 186.90161133 74.31787109 C194.43904111 57.01671254 194.43904111 57.01671254 201.77661133 39.63037109 C202.17750977 38.67388672 202.5784082 37.71740234 202.99145508 36.73193359 C203.81706869 34.74783299 204.63857399 32.76196829 205.44506836 30.77001953 C206.56358162 28.00971195 207.70070911 25.25752858 208.83911133 22.50537109 C209.19013916 21.6261499 209.54116699 20.74692871 209.90283203 19.84106445 C212.87905295 12.71434504 216.49695047 5.86539353 223.03540039 1.46069336 C227.73261864 -0.27618035 231.94182029 -0.19917978 236.90942383 -0.13525391 C238.41882034 -0.13244415 238.41882034 -0.13244415 239.95870972 -0.12957764 C242.0852185 -0.1228696 244.2117152 -0.10898 246.33813477 -0.08837891 C249.55733005 -0.0574344 252.77603246 -0.04742179 255.99536133 -0.04150391 C265.852892 -0.00359254 275.66176505 0.04028458 285.46411133 1.19287109 C285.72142597 8.74076727 285.33998153 14.22592719 282.46411133 21.19287109 C281.9819832 22.47725395 281.50532531 23.7637048 281.03442383 25.05224609 C280.55265299 26.34912109 280.07088216 27.64599609 279.58911133 28.94287109 C279.35836914 29.56935547 279.12762695 30.19583984 278.88989258 30.84130859 C275.04463473 41.16387245 270.60377988 51.24605173 266.15161133 61.31787109 C265.67449707 62.39883057 265.19738281 63.47979004 264.70581055 64.59350586 C263.74447855 66.77060217 262.78257628 68.94744676 261.82006836 71.12402344 C260.59261668 73.90203346 259.36938878 76.68185238 258.14770508 79.46240234 C252.66627278 91.90508868 252.66627278 91.90508868 249.71411133 97.56787109 C247.47450138 101.92060139 246.04034413 106.38721675 244.56176758 111.04443359 C242.61921494 116.61631056 239.99495553 121.86984553 237.46411133 127.19287109 C236.79153984 128.71110232 236.12419826 130.23167043 235.46411133 131.75537109 C233.93361975 135.23549302 232.25131026 138.61741288 230.52661133 142.00537109 C227.98170272 147.04390552 225.74856682 152.1517693 223.61645508 157.37646484 C221.43941148 162.69730699 219.12273353 167.93793363 216.52661133 173.06787109 C212.64598145 180.73923209 209.26004683 188.64832694 205.77661133 196.50537109 C199.55034761 210.54818882 193.18474616 224.52770901 186.68676758 238.44677734 C185.52248865 241.06175526 184.51546229 243.69516491 183.52661133 246.38037109 C180.99443448 252.78405799 177.73997425 259.37085733 171.57275391 262.80102539 C166.42170716 264.90110935 161.13484461 264.62215869 155.65161133 264.59130859 C154.52392334 264.59417877 153.39623535 264.59704895 152.234375 264.6000061 C149.85749813 264.60204152 147.4806043 264.59654834 145.10375977 264.58398438 C141.47609826 264.56792416 137.84955088 264.58385176 134.22192383 264.60302734 C131.90681721 264.60104482 129.59171129 264.59720096 127.27661133 264.59130859 C126.19726318 264.59738129 125.11791504 264.60345398 124.00585938 264.60971069 C118.05840412 264.55446079 113.69140964 264.11806492 108.46411133 261.19287109 C106.60864258 259.02880859 106.60864258 259.02880859 105.27661133 256.56787109 C104.82930664 255.77123047 104.38200195 254.97458984 103.92114258 254.15380859 C100.79446147 247.79985609 98.06563412 241.27259885 95.31884766 234.74780273 C91.88937306 226.62241109 88.29744249 218.65111378 84.27587891 210.80224609 C81.61780344 205.58850787 79.29515905 200.26998465 77.03955078 194.86889648 C75.52500787 191.33496303 73.92392021 187.85990945 72.28051758 184.38427734 C67.84770399 174.95155882 63.65274784 165.41536163 59.44360352 155.88134766 C54.89940879 145.5948244 50.25367528 135.36764945 45.46411133 125.19287109 C43.10033456 120.11718441 40.80011256 115.02728274 38.65942383 109.85302734 C35.13823353 101.34609629 31.47271843 93.02694705 27.25830078 84.83959961 C24.71144651 79.83736837 22.67763412 74.73850832 20.75097656 69.46386719 C19.53928762 66.38395665 18.16976642 63.50649837 16.65161133 60.56787109 C13.555801 54.45560597 10.79723867 48.23440041 8.08911133 41.94287109 C4.60233543 33.90877572 1.02957005 25.96702286 -3.07446289 18.22705078 C-5.88485828 12.84337287 -8.07914947 7.34982686 -7.53588867 1.19287109 C-5.66442509 -0.67859249 -2.49691968 0.02587566 0 0 Z " fill="#BD06C7" transform="translate(15.535888671875,70.80712890625)"/>
<path d="M0 0 C1.20970459 0.00523682 2.41940918 0.01047363 3.66577148 0.01586914 C4.97094727 0.0190918 6.27612305 0.02231445 7.62084961 0.02563477 C9.00952213 0.03399138 10.39819401 0.04245634 11.78686523 0.05102539 C13.17944179 0.05603873 14.57202005 0.06060193 15.96459961 0.06469727 C19.38456394 0.07653105 22.80444367 0.09301659 26.22436523 0.11352539 C26.22436523 0.44352539 26.22436523 0.77352539 26.22436523 1.11352539 C16.98436523 1.44352539 7.74436523 1.77352539 -1.77563477 2.11352539 C-0.94943816 6.24450843 -0.03503815 9.09362594 1.67358398 12.85571289 C2.18453613 13.98775146 2.69548828 15.11979004 3.22192383 16.28613281 C3.78519215 17.52028443 4.34850735 18.75441465 4.91186523 19.98852539 C5.49912621 21.28557665 6.08586728 22.58286341 6.67211914 23.88037109 C8.21176401 27.28507301 9.75717508 30.6871246 11.30401611 34.08856201 C13.62244138 39.1895896 15.9313662 44.29492725 18.23986816 49.40045166 C18.81439236 50.67087554 19.3891822 51.94117932 19.9642334 53.21136475 C25.38974032 65.19792327 30.71023749 77.22973722 35.98754883 89.28222656 C39.18404429 96.57027795 42.45728062 103.81377084 45.84117126 111.0168457 C47.87717982 115.35357994 49.83258606 119.71224323 51.72436523 124.11352539 C54.14585692 129.69928931 56.6490041 135.23802272 59.23901367 140.74829102 C62.34526792 147.35719719 65.41154837 153.98438975 68.47436523 160.61352539 C68.99409912 161.7361377 69.51383301 162.85875 70.04931641 164.01538086 C74.20123982 173.00435912 74.20123982 173.00435912 75.88061523 176.96508789 C77.3252824 180.34997667 78.8882885 183.66868056 80.47436523 186.98852539 C84.63132486 195.75801575 88.64828238 204.59032273 92.66186523 213.42602539 C92.98890442 214.14529205 93.3159436 214.86455872 93.65289307 215.60562134 C96.80044672 222.52909213 99.94235712 229.45430716 103.01733398 236.41040039 C103.41960205 237.31749756 103.82187012 238.22459473 104.23632812 239.15917969 C104.9453429 240.76243333 105.64949281 242.3678536 106.34716797 243.97607422 C107.93357384 247.56132697 109.64632645 251.04806251 111.59155273 254.45336914 C111.95104004 255.0849292 112.31052734 255.71648926 112.6809082 256.3671875 C115.43448286 259.48270783 118.42068558 260.89615621 122.55874634 261.39485168 C125.38664046 261.52701024 128.19807402 261.55548107 131.02905273 261.54711914 C132.06699982 261.55236099 133.1049469 261.55760284 134.17434692 261.56300354 C136.36467598 261.56941174 138.55503951 261.56810236 140.74536133 261.55957031 C144.08144012 261.55107106 147.41579958 261.5798228 150.75170898 261.61157227 C152.88582306 261.61318482 155.01994014 261.61260572 157.15405273 261.60961914 C158.14388153 261.62085312 159.13371033 261.6320871 160.15353394 261.6436615 C166.2183405 261.58320231 171.36964971 261.01864384 176.22436523 257.11352539 C178.0248498 254.839594 179.15584306 252.45778851 180.29467773 249.80102539 C180.7864299 248.73924072 180.7864299 248.73924072 181.28811646 247.65600586 C182.28885108 245.48442108 183.25643774 243.29988517 184.22436523 241.11352539 C184.80280237 239.86070899 185.38435878 238.60932662 185.96948242 237.35961914 C187.70772865 233.62314551 189.40746562 229.87110289 191.09936523 226.11352539 C191.73405958 224.71018059 192.36899535 223.30694495 193.00415039 221.90380859 C195.08239434 217.30922463 197.15354325 212.71145805 199.22436523 208.11352539 C199.9899517 206.41477756 200.75557754 204.71604746 201.52124023 203.01733398 C205.68491862 193.77831048 209.84336178 184.53694248 213.99719238 175.29348755 C216.61263967 169.47351003 219.23053609 163.65463812 221.84936523 157.83618164 C225.51989419 149.68036044 229.1885722 141.52372231 232.84936523 133.36352539 C233.12539581 132.74832031 233.40142639 132.13311523 233.68582153 131.49926758 C237.35995055 123.30795727 241.00742168 115.10655335 244.56420898 106.86352539 C246.0059226 103.56187303 247.52649484 100.29860404 249.04467773 97.03149414 C252.20067677 90.21189123 255.19436355 83.32931236 258.16186523 76.42602539 C263.0591449 65.06533279 268.02836891 53.73808557 273.03686523 42.42602539 C278.2245058 30.70641419 283.33243956 18.96042528 288.22436523 7.11352539 C288.55436523 7.11352539 288.88436523 7.11352539 289.22436523 7.11352539 C288.39909689 17.5119065 284.99803294 25.86956303 280.82202148 35.39086914 C279.60980773 38.17398956 278.47592987 40.98144486 277.36108398 43.80493164 C275.04153845 49.63823871 272.51663389 55.37448533 269.97436523 61.11352539 C269.49273926 62.2035083 269.01111328 63.29349121 268.51489258 64.41650391 C267.54283793 66.61549104 266.57003162 68.81414607 265.59643555 71.01245117 C264.36154528 73.80347896 263.13168058 76.59664159 261.90405273 79.39086914 C256.43034816 91.81841268 256.43034816 91.81841268 253.47436523 97.48852539 C251.23475529 101.84125569 249.80059804 106.30787105 248.32202148 110.96508789 C246.37946885 116.53696485 243.75520943 121.79049982 241.22436523 127.11352539 C240.55179375 128.63175662 239.88445217 130.15232473 239.22436523 131.67602539 C237.69387366 135.15614731 236.01156417 138.53806718 234.28686523 141.92602539 C231.74195662 146.96455982 229.50882073 152.0724236 227.37670898 157.29711914 C225.19966539 162.61796128 222.88298743 167.85858792 220.28686523 172.98852539 C216.40623535 180.65988639 213.02030074 188.56898124 209.53686523 196.42602539 C203.31060151 210.46884311 196.94500007 224.4483633 190.44702148 238.36743164 C189.28274255 240.98240956 188.2757162 243.61581921 187.28686523 246.30102539 C184.75468839 252.70471229 181.50022815 259.29151162 175.33300781 262.72167969 C170.18196106 264.82176364 164.89509852 264.54281298 159.41186523 264.51196289 C158.28417725 264.51483307 157.15648926 264.51770325 155.99462891 264.5206604 C153.61775203 264.52269582 151.24085821 264.51720264 148.86401367 264.50463867 C145.23635217 264.48857846 141.60980479 264.50450606 137.98217773 264.52368164 C135.66707112 264.52169912 133.3519652 264.51785526 131.03686523 264.51196289 C129.95751709 264.51803558 128.87816895 264.52410828 127.76611328 264.53036499 C121.81865803 264.47511508 117.45166354 264.03871922 112.22436523 261.11352539 C110.36889648 258.94946289 110.36889648 258.94946289 109.03686523 256.48852539 C108.58956055 255.69188477 108.14225586 254.89524414 107.68139648 254.07446289 C104.55471537 247.72051039 101.82588802 241.19325315 99.07910156 234.66845703 C95.64962696 226.54306539 92.05769639 218.57176808 88.03613281 210.72290039 C85.37805735 205.50916217 83.05541296 200.19063895 80.79980469 194.78955078 C79.28526178 191.25561733 77.68417412 187.78056375 76.04077148 184.30493164 C71.6079579 174.87221311 67.41300174 165.33601593 63.20385742 155.80200195 C58.65966269 145.5154787 54.01392919 135.28830375 49.22436523 125.11352539 C46.86058847 120.0378387 44.56036646 114.94793704 42.41967773 109.77368164 C38.89848744 101.26675059 35.23297233 92.94760135 31.01855469 84.76025391 C28.47170042 79.75802267 26.43788803 74.65916261 24.51123047 69.38452148 C23.29954153 66.30461094 21.93002032 63.42715267 20.41186523 60.48852539 C17.31605491 54.37626026 14.55749257 48.15505471 11.84936523 41.86352539 C8.36258934 33.82943002 4.78982396 25.88767716 0.68579102 18.14770508 C-2.12460437 12.76402717 -4.31889557 7.27048116 -3.77563477 1.11352539 C-2.77563477 0.11352539 -2.77563477 0.11352539 0 0 Z " fill="#14071A" transform="translate(11.775634765625,70.886474609375)"/>
<path d="M0 0 C1.50939651 0.00280975 1.50939651 0.00280975 3.04928589 0.00567627 C5.17579467 0.0123843 7.30229137 0.0262739 9.42871094 0.046875 C12.64790622 0.0778195 15.86660864 0.08783212 19.0859375 0.09375 C28.94346817 0.13166137 38.75234123 0.17553848 48.5546875 1.328125 C48.69501076 5.18994525 48.56598537 8.05021274 46.96484375 11.57421875 C46.60148926 12.39116211 46.23813477 13.20810547 45.86376953 14.04980469 C45.45239746 14.94602539 45.04102539 15.84224609 44.6171875 16.765625 C43.69839258 18.82124551 42.78049407 20.87726682 41.86328125 22.93359375 C41.34362793 24.09036621 40.82397461 25.24713867 40.28857422 26.43896484 C38.33665478 30.80109028 36.43082847 35.18297384 34.52734375 39.56640625 C34.17506714 40.37757401 33.82279053 41.18874176 33.45983887 42.02449036 C32.73400576 43.69613918 32.00823746 45.36781614 31.28253174 47.03952026 C24.50558391 62.63917728 17.65096499 78.20284461 10.71386719 93.73193359 C9.34259277 96.8031493 7.97679927 99.87677624 6.61157227 102.95068359 C5.37325859 105.73624576 4.13191447 108.52045015 2.890625 111.3046875 C-2.42832973 123.24428208 -7.73006887 135.18937597 -12.88330078 147.20166016 C-15.3416669 152.90045271 -17.92982439 158.52874105 -20.568573 164.14619446 C-24.62135611 172.80071356 -28.49101722 181.5378907 -32.3828125 190.265625 C-33.16980751 192.02804587 -33.95691624 193.79041596 -34.74414062 195.55273438 C-36.64583808 199.81061578 -38.54601167 204.06917403 -40.4453125 208.328125 C-43.42912784 203.85240198 -42.80456373 199.5746898 -42.4453125 194.328125 C-41.6953125 190.703125 -41.6953125 190.703125 -40.4453125 188.328125 C-39.11197917 187.99479167 -37.77864583 187.66145833 -36.4453125 187.328125 C-35.2900981 184.61673595 -35.2900981 184.61673595 -34.4453125 181.328125 C-33.49727473 178.9698221 -32.46917113 176.65507643 -31.4453125 174.328125 C-30.7853125 174.328125 -30.1253125 174.328125 -29.4453125 174.328125 C-29.0121875 172.966875 -29.0121875 172.966875 -28.5703125 171.578125 C-27.67586381 168.99416212 -26.65983382 166.75716764 -25.4453125 164.328125 C-25.0732083 163.00508783 -24.73901077 161.67074565 -24.4453125 160.328125 C-24.11197917 158.99479167 -23.77864583 157.66145833 -23.4453125 156.328125 C-22.7853125 156.328125 -22.1253125 156.328125 -21.4453125 156.328125 C-21.4453125 155.338125 -21.4453125 154.348125 -21.4453125 153.328125 C-20.7853125 153.328125 -20.1253125 153.328125 -19.4453125 153.328125 C-18.9503125 150.358125 -18.9503125 150.358125 -18.4453125 147.328125 C-17.7853125 147.328125 -17.1253125 147.328125 -16.4453125 147.328125 C-17.4353125 144.853125 -17.4353125 144.853125 -18.4453125 142.328125 C-17.4553125 142.328125 -16.4653125 142.328125 -15.4453125 142.328125 C-15.3009375 141.544375 -15.1565625 140.760625 -15.0078125 139.953125 C-14.4453125 137.328125 -14.4453125 137.328125 -13.4453125 135.328125 C-12.7853125 135.328125 -12.1253125 135.328125 -11.4453125 135.328125 C-10.11197917 132.328125 -10.11197917 132.328125 -11.4453125 129.328125 C-10.44032118 126.69968616 -9.99723879 125.60408815 -7.4453125 124.328125 C-6.79317958 122.30349245 -6.79317958 122.30349245 -6.4453125 120.328125 C-5.4553125 120.328125 -4.4653125 120.328125 -3.4453125 120.328125 C-3.39632812 119.40128906 -3.34734375 118.47445312 -3.296875 117.51953125 C-3.22210938 116.32199219 -3.14734375 115.12445313 -3.0703125 113.890625 C-3.00070313 112.69566406 -2.93109375 111.50070313 -2.859375 110.26953125 C-2.72273438 109.29886719 -2.58609375 108.32820313 -2.4453125 107.328125 C-1.7853125 106.998125 -1.1253125 106.668125 -0.4453125 106.328125 C0.0496875 105.4825 0.5446875 104.636875 1.0546875 103.765625 C1.5496875 102.96125 2.0446875 102.156875 2.5546875 101.328125 C3.2146875 101.328125 3.8746875 101.328125 4.5546875 101.328125 C4.5546875 98.688125 4.5546875 96.048125 4.5546875 93.328125 C5.2146875 93.328125 5.8746875 93.328125 6.5546875 93.328125 C6.6784375 92.585625 6.8021875 91.843125 6.9296875 91.078125 C7.51552923 88.50042138 8.3530944 86.65621164 9.5546875 84.328125 C9.6990625 83.60625 9.8434375 82.884375 9.9921875 82.140625 C10.1778125 81.5425 10.3634375 80.944375 10.5546875 80.328125 C11.5446875 79.998125 12.5346875 79.668125 13.5546875 79.328125 C13.5546875 76.358125 13.5546875 73.388125 13.5546875 70.328125 C14.5446875 70.328125 15.5346875 70.328125 16.5546875 70.328125 C16.6990625 69.750625 16.8434375 69.173125 16.9921875 68.578125 C17.51302083 66.49479167 18.03385417 64.41145833 18.5546875 62.328125 C19.5446875 62.328125 20.5346875 62.328125 21.5546875 62.328125 C21.5546875 57.708125 21.5546875 53.088125 21.5546875 48.328125 C22.2146875 48.328125 22.8746875 48.328125 23.5546875 48.328125 C24.0496875 47.338125 24.0496875 47.338125 24.5546875 46.328125 C24.8846875 46.658125 25.2146875 46.988125 25.5546875 47.328125 C25.8846875 45.678125 26.2146875 44.028125 26.5546875 42.328125 C28.0396875 42.823125 28.0396875 42.823125 29.5546875 43.328125 C29.5546875 39.038125 29.5546875 34.748125 29.5546875 30.328125 C31.2046875 30.328125 32.8546875 30.328125 34.5546875 30.328125 C36.50377771 26.76291415 37.24402797 23.41045626 37.9921875 19.44921875 C38.5546875 17.328125 38.5546875 17.328125 40.5546875 14.328125 C39.5646875 13.998125 38.5746875 13.668125 37.5546875 13.328125 C38.1734375 13.10125 38.7921875 12.874375 39.4296875 12.640625 C42.16878959 10.94882665 42.60493222 9.33568339 43.5546875 6.328125 C42.5646875 6.328125 41.5746875 6.328125 40.5546875 6.328125 C40.5546875 5.338125 40.5546875 4.348125 40.5546875 3.328125 C39.5646875 3.328125 38.5746875 3.328125 37.5546875 3.328125 C37.5546875 3.988125 37.5546875 4.648125 37.5546875 5.328125 C33.82687688 6.28670487 31.28115929 6.21071042 27.5546875 5.328125 C24.69861036 5.1887199 24.69861036 5.1887199 22.6171875 5.890625 C20.25803828 6.39105059 18.8261719 6.05824498 16.5546875 5.328125 C16.2246875 5.988125 15.8946875 6.648125 15.5546875 7.328125 C15.0596875 6.338125 15.0596875 6.338125 14.5546875 5.328125 C13.595625 5.885 13.595625 5.885 12.6171875 6.453125 C9.36446731 7.38247363 8.59711069 7.22008475 5.4921875 6.328125 C-0.2575736 4.83028808 -5.8033968 5.5914993 -11.4453125 7.328125 C-13.12400141 8.73054914 -13.12400141 8.73054914 -14.4453125 10.328125 C-15.4353125 10.988125 -16.4253125 11.648125 -17.4453125 12.328125 C-18.18137749 15.89582052 -18.18137749 15.89582052 -18.4453125 19.328125 C-19.4353125 19.658125 -20.4253125 19.988125 -21.4453125 20.328125 C-23.20529485 23.91578133 -24.60810886 27.42117467 -25.4453125 31.328125 C-25.7753125 32.318125 -26.1053125 33.308125 -26.4453125 34.328125 C-26.48406171 35.99434116 -26.4903411 37.66206672 -26.4453125 39.328125 C-27.07050781 39.56789062 -27.69570312 39.80765625 -28.33984375 40.0546875 C-30.99825959 41.66256053 -31.28727715 42.76085749 -32.1328125 45.703125 C-32.36355469 46.47398438 -32.59429687 47.24484375 -32.83203125 48.0390625 C-33.39235614 50.13046624 -33.93149636 52.22484024 -34.4453125 54.328125 C-34.7753125 53.008125 -35.1053125 51.688125 -35.4453125 50.328125 C-36.4353125 50.328125 -37.4253125 50.328125 -38.4453125 50.328125 C-38.53941406 50.97265625 -38.63351563 51.6171875 -38.73046875 52.28125 C-39.69685744 56.40028374 -41.26722335 60.17570396 -42.8828125 64.078125 C-43.19541016 64.85800781 -43.50800781 65.63789063 -43.83007812 66.44140625 C-44.28737305 67.55322266 -44.28737305 67.55322266 -44.75390625 68.6875 C-45.03032959 69.36264648 -45.30675293 70.03779297 -45.59155273 70.73339844 C-46.4453125 72.328125 -46.4453125 72.328125 -48.4453125 73.328125 C-47.83186597 69.69341366 -46.82889938 66.59656233 -45.3359375 63.23046875 C-44.91368896 62.27060059 -44.49144043 61.31073242 -44.05639648 60.32177734 C-43.60723877 59.31324707 -43.15808105 58.3047168 -42.6953125 57.265625 C-41.77410484 55.17345645 -40.85352392 53.08101183 -39.93359375 50.98828125 C-39.49611816 49.99586426 -39.05864258 49.00344727 -38.60791016 47.98095703 C-37.33165374 45.06877681 -36.09385505 42.14300567 -34.8828125 39.203125 C-34.51800781 38.32785156 -34.15320313 37.45257813 -33.77734375 36.55078125 C-33.00601958 34.68467439 -32.23866358 32.81689673 -31.48193359 30.94482422 C-30.35784921 28.17120782 -29.21473867 25.40590304 -28.0703125 22.640625 C-27.7189624 21.76067871 -27.3676123 20.88073242 -27.00561523 19.97412109 C-24.02986064 12.84813071 -20.41166469 6.00010267 -13.87402344 1.59594727 C-9.17680518 -0.14092644 -4.96760354 -0.06392587 0 0 Z " fill="#9B0BD6" transform="translate(252.4453125,70.671875)"/>
<path d="M0 0 C8.64932083 -0.06956643 17.29854508 -0.12284485 25.94808483 -0.15543652 C29.96459536 -0.17108035 33.98091422 -0.19229492 37.99731445 -0.22631836 C41.87470186 -0.25895797 45.75190512 -0.27686267 49.62941933 -0.28463173 C51.10738333 -0.29016701 52.58533746 -0.30097619 54.06322289 -0.31719017 C56.13636282 -0.33902641 58.20874564 -0.34196446 60.28198242 -0.34057617 C61.46112717 -0.34723801 62.64027191 -0.35389984 63.85514832 -0.36076355 C67.92737183 0.10638402 70.66792599 1.47413958 73.37109375 4.57055664 C77.18216775 10.92147415 80.08650838 17.63952988 83 24.4375 C83.58633678 25.79404318 84.17310243 27.15040105 84.76025391 28.5065918 C86.08161563 31.56284796 87.39806546 34.62117098 88.71191406 37.68066406 C90.84195663 42.6381926 92.98637303 47.58943153 95.1317749 52.54032898 C97.0691755 57.01438262 99.00107694 61.49079649 100.93164062 65.96780396 C101.89392873 68.19771375 102.85779656 70.4269425 103.82324219 72.65548706 C105.18697973 75.80581582 106.54359685 78.95911797 107.8984375 82.11328125 C108.3133847 83.06814423 108.72833191 84.0230072 109.15585327 85.00680542 C109.53158478 85.88539215 109.90731628 86.76397888 110.29443359 87.66918945 C110.62526947 88.4364888 110.95610535 89.20378815 111.29696655 89.99433899 C112 92 112 92 112 95 C110.35 94.67 108.7 94.34 107 94 C107 93.01 107 92.02 107 91 C106.34 90.67 105.68 90.34 105 90 C104.4375 88.07421875 104.4375 88.07421875 104 85.6875 C103.40250769 82.45997456 102.58344639 79.88319198 101 77 C100.34 77 99.68 77 99 77 C98.896875 76.071875 98.79375 75.14375 98.6875 74.1875 C98.33514719 71.04055463 98.33514719 71.04055463 96.52734375 69.6796875 C94.34466199 67.2792958 94.29999054 65.11720191 93.875 61.9375 C93.39071194 57.82871926 93.39071194 57.82871926 92 54 C91.01773438 53.61714844 91.01773438 53.61714844 90.015625 53.2265625 C88 52 88 52 87.171875 49.3984375 C86.96304688 47.90183594 86.96304688 47.90183594 86.75 46.375 C86.60046875 45.37210938 86.4509375 44.36921875 86.296875 43.3359375 C86.19890625 42.56507812 86.1009375 41.79421875 86 41 C84.515 40.505 84.515 40.505 83 40 C81.06805254 36.88741797 80 33.67017273 80 30 C79.01 29.01 79.01 29.01 78 28 C77.875 24.875 77.875 24.875 78 22 C76.35 21.67 74.7 21.34 73 21 C72.67 21.66 72.34 22.32 72 23 C71 20 71 20 72 17 C72.19459037 15.04413253 72.19459037 15.04413253 72.1875 13 C72.20167969 12.319375 72.21585937 11.63875 72.23046875 10.9375 C72.10940411 8.67385868 72.10940411 8.67385868 70 6 C69.05125 6.185625 68.1025 6.37125 67.125 6.5625 C64 7 64 7 62 6 C59.67085177 5.63858045 57.33746522 5.30300475 55 5 C55 4.34 55 3.68 55 3 C54.34 3 53.68 3 53 3 C52.67 3.66 52.34 4.32 52 5 C47.05554183 5.99266123 42.21921381 6.13503333 37.1875 6.125 C35.88167969 6.12757812 34.57585938 6.13015625 33.23046875 6.1328125 C30 6 30 6 28 5 C26.88625 5.2784375 26.88625 5.2784375 25.75 5.5625 C22.31956574 6.1082509 20.19028276 5.26127458 17 4 C16.67 4.33 16.34 4.66 16 5 C14.33382885 5.04063832 12.66611905 5.042721 11 5 C11 4.34 11 3.68 11 3 C10.34 3 9.68 3 9 3 C9 3.66 9 4.32 9 5 C8.34 5 7.68 5 7 5 C6.67 4.34 6.34 3.68 6 3 C5.01 4.485 5.01 4.485 4 6 C4.80404463 9.1628485 4.80404463 9.1628485 6 12 C6.66 11.67 7.32 11.34 8 11 C11.33333333 22.33333333 11.33333333 22.33333333 10 25 C10.66 25 11.32 25 12 25 C12 24.34 12 23.68 12 23 C12.66 23 13.32 23 14 23 C14.12375 23.61875 14.2475 24.2375 14.375 24.875 C14.87197356 27.19120832 14.87197356 27.19120832 17 29 C17.34375 31.0234375 17.34375 31.0234375 17.5 33.375 C17.80349029 37.91217978 18.74807131 40.74807131 22 44 C22.33 43.34 22.66 42.68 23 42 C24.37810527 44.75621054 23.97919884 47.09263335 23.83984375 50.125 C23.81834421 52.24791868 23.81834421 52.24791868 26 54 C25.67 54.66 25.34 55.32 25 56 C25.99 56.66 26.98 57.32 28 58 C29.1875 60.125 29.1875 60.125 30 62 C30.99 61.505 30.99 61.505 32 61 C32.336611 62.77021322 32.66917293 64.54119674 33 66.3125 C33.185625 67.29863281 33.37125 68.28476563 33.5625 69.30078125 C34 72 34 72 34 75 C36.97 75.99 36.97 75.99 40 77 C40.19491452 78.45736087 40.38069358 79.91594593 40.5625 81.375 C40.66691406 82.18710938 40.77132812 82.99921875 40.87890625 83.8359375 C41 86 41 86 40 88 C40.99 88.33 41.98 88.66 43 89 C43.6875 91.0625 43.6875 91.0625 44 93 C44.99 92.01 45.98 91.02 47 90 C47.66 91.65 48.32 93.3 49 95 C48.01 95.33 47.02 95.66 46 96 C45.67 97.65 45.34 99.3 45 101 C45.99 100.67 46.98 100.34 48 100 C48.12375 100.9075 48.2475 101.815 48.375 102.75 C48.92802286 105.62571885 49.68078293 107.44951366 51 110 C51 110.99 51 111.98 51 113 C51.99 113.33 52.98 113.66 54 114 C54.33 114.99 54.66 115.98 55 117 C55.99 117.99 55.99 117.99 57 119 C57.12375 119.5775 57.2475 120.155 57.375 120.75 C57.9449453 123.25516924 57.9449453 123.25516924 60 126 C61.77276293 128.6591444 62.43463261 129.98470724 63 133 C63.33 133.969375 63.66 134.93875 64 135.9375 C65 139 65 139 65.1875 141.5 C66.48634184 145.49643642 69.7315538 147.51666359 73 150 C72.67 150.66 72.34 151.32 72 152 C71.34 152 70.68 152 70 152 C70 152.66 70 153.32 70 154 C71.98 154.99 71.98 154.99 74 156 C73.67 156.33 73.34 156.66 73 157 C73.66 157.33 74.32 157.66 75 158 C74.67 158.99 74.34 159.98 74 161 C75.33700035 163.58944746 75.33700035 163.58944746 77 166 C77.33 166.66 77.66 167.32 78 168 C78.99 168.33 79.98 168.66 81 169 C80.6875 170.875 80.6875 170.875 80 173 C79.01 173.66 78.02 174.32 77 175 C71.34886741 164.14650124 66.29987668 153.06668517 61.36547852 141.87060547 C58.69919486 135.82160939 56.01438282 129.78823219 53.1875 123.8125 C50.87294043 118.90877211 48.65670436 113.9743151 46.5 109 C44.02730046 103.29897785 41.46316747 97.65078729 38.81835938 92.02685547 C34.97478172 83.84153581 31.26031627 75.5975517 27.52636719 67.36181641 C25.83624139 63.63932244 24.14118698 59.91909614 22.4453125 56.19921875 C19.56646223 49.88446152 16.69720954 43.56541263 13.83441162 37.24336243 C11.97765393 33.14582903 10.10853322 29.05426306 8.22836304 24.96742249 C7.35683651 23.06896215 6.49054221 21.16821842 5.62646484 19.26635742 C4.56544322 16.93169577 3.4958416 14.60090884 2.41650391 12.2746582 C1.94905762 11.23913818 1.48161133 10.20361816 1 9.13671875 C0.5875 8.23655029 0.175 7.33638184 -0.25 6.40893555 C-1.08749415 3.71897631 -0.77867189 2.63334059 0 0 Z " fill="#ED13A7" transform="translate(10,72)"/>
<path d="M0 0 C1.50939651 0.00280975 1.50939651 0.00280975 3.04928589 0.00567627 C5.17579467 0.0123843 7.30229137 0.0262739 9.42871094 0.046875 C12.64790622 0.0778195 15.86660864 0.08783212 19.0859375 0.09375 C28.94346817 0.13166137 38.75234123 0.17553848 48.5546875 1.328125 C48.5546875 2.648125 48.5546875 3.968125 48.5546875 5.328125 C45.9146875 5.328125 43.2746875 5.328125 40.5546875 5.328125 C40.5546875 4.668125 40.5546875 4.008125 40.5546875 3.328125 C39.5646875 3.328125 38.5746875 3.328125 37.5546875 3.328125 C37.5546875 3.988125 37.5546875 4.648125 37.5546875 5.328125 C33.82687688 6.28670487 31.28115929 6.21071042 27.5546875 5.328125 C24.69861036 5.1887199 24.69861036 5.1887199 22.6171875 5.890625 C20.25803828 6.39105059 18.8261719 6.05824498 16.5546875 5.328125 C16.2246875 5.988125 15.8946875 6.648125 15.5546875 7.328125 C15.0596875 6.338125 15.0596875 6.338125 14.5546875 5.328125 C13.595625 5.885 13.595625 5.885 12.6171875 6.453125 C9.36446731 7.38247363 8.59711069 7.22008475 5.4921875 6.328125 C-0.2575736 4.83028808 -5.8033968 5.5914993 -11.4453125 7.328125 C-13.12400141 8.73054914 -13.12400141 8.73054914 -14.4453125 10.328125 C-15.4353125 10.988125 -16.4253125 11.648125 -17.4453125 12.328125 C-18.18137749 15.89582052 -18.18137749 15.89582052 -18.4453125 19.328125 C-19.4353125 19.658125 -20.4253125 19.988125 -21.4453125 20.328125 C-23.20529485 23.91578133 -24.60810886 27.42117467 -25.4453125 31.328125 C-25.7753125 32.318125 -26.1053125 33.308125 -26.4453125 34.328125 C-26.48406171 35.99434116 -26.4903411 37.66206672 -26.4453125 39.328125 C-27.07050781 39.56789062 -27.69570312 39.80765625 -28.33984375 40.0546875 C-30.99825959 41.66256053 -31.28727715 42.76085749 -32.1328125 45.703125 C-32.36355469 46.47398438 -32.59429687 47.24484375 -32.83203125 48.0390625 C-33.39235614 50.13046624 -33.93149636 52.22484024 -34.4453125 54.328125 C-34.7753125 53.008125 -35.1053125 51.688125 -35.4453125 50.328125 C-36.4353125 50.328125 -37.4253125 50.328125 -38.4453125 50.328125 C-38.53941406 50.97265625 -38.63351563 51.6171875 -38.73046875 52.28125 C-39.69685744 56.40028374 -41.26722335 60.17570396 -42.8828125 64.078125 C-43.19541016 64.85800781 -43.50800781 65.63789063 -43.83007812 66.44140625 C-44.28737305 67.55322266 -44.28737305 67.55322266 -44.75390625 68.6875 C-45.03032959 69.36264648 -45.30675293 70.03779297 -45.59155273 70.73339844 C-46.4453125 72.328125 -46.4453125 72.328125 -48.4453125 73.328125 C-47.83186597 69.69341366 -46.82889938 66.59656233 -45.3359375 63.23046875 C-44.91368896 62.27060059 -44.49144043 61.31073242 -44.05639648 60.32177734 C-43.60723877 59.31324707 -43.15808105 58.3047168 -42.6953125 57.265625 C-41.77410484 55.17345645 -40.85352392 53.08101183 -39.93359375 50.98828125 C-39.49611816 49.99586426 -39.05864258 49.00344727 -38.60791016 47.98095703 C-37.33165374 45.06877681 -36.09385505 42.14300567 -34.8828125 39.203125 C-34.51800781 38.32785156 -34.15320313 37.45257813 -33.77734375 36.55078125 C-33.00601958 34.68467439 -32.23866358 32.81689673 -31.48193359 30.94482422 C-30.35784921 28.17120782 -29.21473867 25.40590304 -28.0703125 22.640625 C-27.7189624 21.76067871 -27.3676123 20.88073242 -27.00561523 19.97412109 C-24.02986064 12.84813071 -20.41166469 6.00010267 -13.87402344 1.59594727 C-9.17680518 -0.14092644 -4.96760354 -0.06392587 0 0 Z " fill="#9B07DD" transform="translate(252.4453125,70.671875)"/>
<path d="M0 0 C5.01699904 -0.124032 10.03309682 -0.21454017 15.05126953 -0.2746582 C16.75650589 -0.29973045 18.46163554 -0.33379764 20.16650391 -0.37719727 C22.62429174 -0.43817566 25.08065361 -0.46628112 27.5390625 -0.48828125 C28.29555084 -0.51408768 29.05203918 -0.5398941 29.83145142 -0.56648254 C33.74765542 -0.56853584 36.2444806 -0.21393226 39.37036133 2.24853516 C41.69631463 4.68224547 43.15084625 6.48767789 44.53515625 9.51171875 C44.93879395 10.38231934 45.34243164 11.25291992 45.75830078 12.14990234 C46.16806152 13.09043457 46.57782227 14.0309668 47 15 C47.43683105 16.00111816 47.87366211 17.00223633 48.32373047 18.03369141 C49.71681611 21.28455805 51.08142659 24.54603181 52.4375 27.8125 C55.15409292 34.34239881 57.8979511 40.84312941 60.88671875 47.25390625 C64.5586064 55.13628828 67.9646927 63.12704556 71.375 71.125 C72.04207936 72.68639297 72.70923489 74.2477534 73.37646484 75.80908203 C74.97537074 79.55248578 76.5715706 83.29703452 78.16625977 87.04223633 C78.90646568 88.78036552 79.64750831 90.51813833 80.38867188 92.25585938 C83.57469805 99.73177302 86.72744064 107.19497628 89.5625 114.8125 C91.7931507 120.73814012 94.54439289 126.28982395 97.44921875 131.90625 C99.63181132 136.26043971 101 139.07894549 101 144 C101.66 144 102.32 144 103 144 C103.25692627 144.6297876 103.51385254 145.2595752 103.77856445 145.90844727 C104.95591322 148.79338897 106.13419936 151.67794695 107.3125 154.5625 C107.71662109 155.55314453 108.12074219 156.54378906 108.53710938 157.56445312 C109.32750693 159.49867805 110.12056731 161.43181734 110.91650391 163.36376953 C111.58338326 164.986339 112.24344868 166.61175309 112.89208984 168.24169922 C114.15149491 171.79036645 114.15149491 171.79036645 117 174 C117.13140381 173.42475586 117.26280762 172.84951172 117.39819336 172.25683594 C117.99045774 170.03578446 118.74537973 168.01108866 119.62890625 165.890625 C119.94150391 165.13652344 120.25410156 164.38242188 120.57617188 163.60546875 C120.90166016 162.82816406 121.22714844 162.05085937 121.5625 161.25 C121.89185547 160.45722656 122.22121094 159.66445312 122.56054688 158.84765625 C123.37119716 156.89739615 124.18526486 154.94855716 125 153 C126.22660322 156.67980967 125.28114942 157.77720351 123.703125 161.1484375 C122.69832496 163.79441095 122.79571947 166.20816603 123 169 C122.34 169 121.68 169 121 169 C120.67 169.66 120.34 170.32 120 171 C120.66 171 121.32 171 122 171 C122.33 171.99 122.66 172.98 123 174 C116.25 178 116.25 178 114 178 C112.68049902 174.95499773 111.36099914 171.90999499 110.04150391 168.86499023 C108.86542116 166.15094988 107.68931084 163.43692147 106.51318359 160.72290039 C103.6919504 154.21258957 100.87087626 147.70221022 98.05078125 141.19140625 C94.70192832 133.46032714 91.35127828 125.73002797 88 118 C87.58820496 117.05010193 87.17640991 116.10020386 86.75213623 115.121521 C70.44805193 77.48567297 70.44805193 77.48567297 54.0234375 39.90234375 C51.94684043 35.17350568 49.89238868 30.43578805 47.8515625 25.69140625 C47.34850586 24.52899414 46.84544922 23.36658203 46.32714844 22.16894531 C45.39456084 20.01339483 44.46763282 17.85538197 43.54785156 15.69433594 C40.59006656 8.83905339 40.59006656 8.83905339 36 3 C32.45995354 1.81998451 29.1772744 1.77087654 25.48828125 1.68359375 C24.76005661 1.66281265 24.03183197 1.64203156 23.28153992 1.62062073 C20.95862125 1.55531254 18.63559094 1.49632763 16.3125 1.4375 C14.73631665 1.39429695 13.16014452 1.35068208 11.58398438 1.30664062 C7.72277025 1.1996504 3.86144397 1.09833039 0 1 C0 0.67 0 0.34 0 0 Z " fill="#100715" transform="translate(44,71)"/>
<path d="M0 0 C1.18359375 1.54296875 1.18359375 1.54296875 2 4 C1.15325299 6.61307947 0.24550324 8.85755476 -0.9375 11.3125 C-1.26306885 12.01890625 -1.5886377 12.7253125 -1.92407227 13.453125 C-2.60395683 14.92328733 -3.29082519 16.39023857 -3.984375 17.85400391 C-4.92284501 19.836973 -5.84066894 21.82775739 -6.75 23.82421875 C-8.16146095 26.91245287 -9.60907192 29.98185389 -11.07324219 33.04541016 C-11.71961374 34.40864794 -12.35765219 35.77585458 -12.98925781 37.14599609 C-13.9980145 39.3342147 -15.02823201 41.51124328 -16.0625 43.6875 C-16.36663818 44.35910156 -16.67077637 45.03070313 -16.98413086 45.72265625 C-19.20287725 50.30872841 -21.55030623 52.57128268 -26 55 C-28.87802672 55.95934224 -30.70868675 56.1316445 -33.69921875 56.14526367 C-34.65030518 56.15164352 -35.6013916 56.15802338 -36.58129883 56.16459656 C-37.60634521 56.16570938 -38.6313916 56.1668222 -39.6875 56.16796875 C-40.74155029 56.17129715 -41.79560059 56.17462555 -42.8815918 56.17805481 C-45.1108354 56.18311883 -47.34008659 56.1854633 -49.56933594 56.18530273 C-52.98645437 56.18749132 -56.40325111 56.20565852 -59.8203125 56.22460938 C-61.98437389 56.22754293 -64.14843682 56.22952798 -66.3125 56.23046875 C-67.33754639 56.23765427 -68.36259277 56.24483978 -69.41870117 56.25224304 C-70.3697876 56.24916641 -71.32087402 56.24608978 -72.30078125 56.24291992 C-73.13778564 56.24434494 -73.97479004 56.24576996 -74.8371582 56.24723816 C-77 56 -77 56 -80 54 C-57.23 53.505 -57.23 53.505 -34 53 C-34 52.34 -34 51.68 -34 51 C-33.01 51 -32.02 51 -31 51 C-30.505 50.01 -30.505 50.01 -30 49 C-29.01 49 -28.02 49 -27 49 C-26.01 48.67 -25.02 48.34 -24 48 C-23.67 45.36 -23.34 42.72 -23 40 C-22.01 40.495 -22.01 40.495 -21 41 C-20.67 40.01 -20.34 39.02 -20 38 C-19.01 38 -18.02 38 -17 38 C-16.855625 36.948125 -16.71125 35.89625 -16.5625 34.8125 C-16.12422998 31.84200319 -15.63405389 28.93249922 -15 26 C-14.9071875 25.01 -14.9071875 25.01 -14.8125 24 C-14 22 -14 22 -11.0625 19.8125 C-7.52038348 17.08844372 -7.13498608 14.43169164 -6.421875 10.16015625 C-5.86209122 7.29385598 -4.82793548 5.26663999 -3 3 C-2.01 3 -1.02 3 0 3 C0 2.01 0 1.02 0 0 Z " fill="#9D0CCD" transform="translate(209,277)"/>
<path d="M0 0 C0.103125 0.53625 0.20625 1.0725 0.3125 1.625 C0.9720504 4.18334536 0.9720504 4.18334536 2.5625 7.0625 C4 10 4 10 4 13 C4.99 13.33 5.98 13.66 7 14 C7.33 14.99 7.66 15.98 8 17 C8.66 17.66 9.32 18.32 10 19 C10.12375 19.5775 10.2475 20.155 10.375 20.75 C10.9449453 23.25516924 10.9449453 23.25516924 13 26 C14.77276293 28.6591444 15.43463261 29.98470724 16 33 C16.33 33.969375 16.66 34.93875 17 35.9375 C18 39 18 39 18.1875 41.5 C19.48634184 45.49643642 22.7315538 47.51666359 26 50 C25.67 50.66 25.34 51.32 25 52 C24.34 52 23.68 52 23 52 C23 52.66 23 53.32 23 54 C24.32 54.66 25.64 55.32 27 56 C26.67 56.33 26.34 56.66 26 57 C26.66 57.33 27.32 57.66 28 58 C27.67 58.99 27.34 59.98 27 61 C28.33700035 63.58944746 28.33700035 63.58944746 30 66 C30.495 66.99 30.495 66.99 31 68 C31.99 68.33 32.98 68.66 34 69 C33.6875 70.875 33.6875 70.875 33 73 C32.01 73.66 31.02 74.32 30 75 C24.35248074 64.15344095 19.30785777 53.08041657 14.37426758 41.89257812 C8.22315011 27.74977474 8.22315011 27.74977474 1.36328125 13.9453125 C0.01391553 11.03006392 -0.49911154 8.86702871 -0.75 5.6875 C-0.82734375 4.82511719 -0.9046875 3.96273437 -0.984375 3.07421875 C-0.98953125 2.38972656 -0.9946875 1.70523438 -1 1 C-0.67 0.67 -0.34 0.34 0 0 Z " fill="#E910B4" transform="translate(57,172)"/>
<path d="M0 0 C1.24153433 3.724603 0.47452539 4.47752269 -1 8 C-1.37593066 9.9924325 -1.71979545 11.9918674 -2 14 C-1.01 13.67 -0.02 13.34 1 13 C1 13.66 1 14.32 1 15 C0.34 15 -0.32 15 -1 15 C-0.505 16.485 -0.505 16.485 0 18 C-1.4375 20.6875 -1.4375 20.6875 -3 23 C-3.66 22.34 -4.32 21.68 -5 21 C-7.27157197 23.80643274 -7.27157197 23.80643274 -7 26.9375 C-7 30.08562485 -7.52197018 31.32107096 -9 34 C-9 34.99 -9 35.98 -9 37 C-10.14958552 41.06776413 -11.60576518 44.50840756 -14 48 C-14.99 48.495 -14.99 48.495 -16 49 C-17.04808041 50.97522846 -18.0520411 52.97481509 -19 55 C-19.66 55 -20.32 55 -21 55 C-21.66 56.98 -22.32 58.96 -23 61 C-22.34 61.33 -21.68 61.66 -21 62 C-22.485 62.495 -22.485 62.495 -24 63 C-23.938125 64.216875 -23.87625 65.43375 -23.8125 66.6875 C-23.79177176 70.57750046 -24.62724186 72.83632249 -27 76 C-27.33 75.01 -27.66 74.02 -28 73 C-29.32 75.31 -30.64 77.62 -32 80 C-33 78 -33 78 -32.18310547 75.46899414 C-31.74885254 74.41832764 -31.31459961 73.36766113 -30.8671875 72.28515625 C-30.39023438 71.12306641 -29.91328125 69.96097656 -29.421875 68.76367188 C-28.90625821 67.52994449 -28.39063317 66.29622054 -27.875 65.0625 C-27.14410156 63.28262695 -27.14410156 63.28262695 -26.3984375 61.46679688 C-23.73966151 55.02845768 -20.97268005 48.65410597 -18.06298828 42.32543945 C-16.81482222 39.59489701 -15.6416492 36.83915394 -14.5 34.0625 C-13.87738281 32.55623047 -13.87738281 32.55623047 -13.2421875 31.01953125 C-12.83226562 30.02308594 -12.42234375 29.02664062 -12 28 C-8.13040854 18.60791211 -4.09356517 9.29605002 0 0 Z " fill="#AB08D6" transform="translate(203,144)"/>
<path d="M0 0 C2.80440566 2.80440566 3.98370621 6.21964162 5.52734375 9.8125 C5.87254059 10.60585754 6.21773743 11.39921509 6.57339478 12.21661377 C7.69968673 14.80897255 8.81888843 17.40431885 9.9375 20 C10.70607702 21.77581216 11.47487663 23.551528 12.24389648 25.32714844 C14.1504122 29.73375409 16.05005576 34.14328362 17.94714355 38.55395508 C18.92142022 40.81743981 19.89811462 43.07985921 20.87597656 45.34179688 C22.44592767 48.974548 24.00583838 52.61153153 25.5625 56.25 C26.02068115 57.3121875 26.4788623 58.374375 26.95092773 59.46875 C27.36028564 60.43296875 27.76964355 61.3971875 28.19140625 62.390625 C28.54404541 63.21594727 28.89668457 64.04126953 29.26000977 64.89160156 C30 67 30 67 30 70 C28.35 69.67 26.7 69.34 25 69 C25 68.01 25 67.02 25 66 C24.34 65.67 23.68 65.34 23 65 C22.4375 63.07421875 22.4375 63.07421875 22 60.6875 C21.40250769 57.45997456 20.58344639 54.88319198 19 52 C18.34 52 17.68 52 17 52 C16.896875 51.071875 16.79375 50.14375 16.6875 49.1875 C16.33514719 46.04055463 16.33514719 46.04055463 14.52734375 44.6796875 C12.34466199 42.2792958 12.29999054 40.11720191 11.875 36.9375 C11.39071194 32.82871926 11.39071194 32.82871926 10 29 C9.01773438 28.61714844 9.01773438 28.61714844 8.015625 28.2265625 C6 27 6 27 5.171875 24.3984375 C5.03265625 23.40070313 4.8934375 22.40296875 4.75 21.375 C4.60046875 20.37210938 4.4509375 19.36921875 4.296875 18.3359375 C4.14992188 17.17964844 4.14992188 17.17964844 4 16 C3.01 15.67 2.02 15.34 1 15 C1.01160156 14.41992188 1.02320312 13.83984375 1.03515625 13.2421875 C1.08762174 8.7001754 0.91751063 4.47286431 0 0 Z " fill="#D711BD" transform="translate(92,97)"/>
<path d="M0 0 C1.26237731 2.52475462 1.09856404 4.31200466 1.0625 7.125 C1.05347656 8.03507812 1.04445312 8.94515625 1.03515625 9.8828125 C1.02355469 10.58148438 1.01195312 11.28015625 1 12 C0.01 12.33 -0.98 12.66 -2 13 C-3.75998235 16.58765633 -5.16279636 20.09304967 -6 24 C-6.33 24.99 -6.66 25.98 -7 27 C-7.03874921 28.66621616 -7.0450286 30.33394172 -7 32 C-7.62519531 32.23976562 -8.25039062 32.47953125 -8.89453125 32.7265625 C-11.55294709 34.33443553 -11.84196465 35.43273249 -12.6875 38.375 C-12.91824219 39.14585938 -13.14898437 39.91671875 -13.38671875 40.7109375 C-13.94704364 42.80234124 -14.48618386 44.89671524 -15 47 C-15.33 45.68 -15.66 44.36 -16 43 C-16.99 43 -17.98 43 -19 43 C-19.09410156 43.64453125 -19.18820313 44.2890625 -19.28515625 44.953125 C-20.25154494 49.07215874 -21.82191085 52.84757896 -23.4375 56.75 C-23.75009766 57.52988281 -24.06269531 58.30976563 -24.38476562 59.11328125 C-24.84206055 60.22509766 -24.84206055 60.22509766 -25.30859375 61.359375 C-25.72322876 62.37209473 -25.72322876 62.37209473 -26.14624023 63.40527344 C-27 65 -27 65 -29 66 C-28.38655347 62.36528866 -27.38358688 59.26843733 -25.890625 55.90234375 C-25.46837646 54.94247559 -25.04612793 53.98260742 -24.61108398 52.99365234 C-24.16192627 51.98512207 -23.71276855 50.9765918 -23.25 49.9375 C-22.32879234 47.84533145 -21.40821142 45.75288683 -20.48828125 43.66015625 C-20.05080566 42.66773926 -19.61333008 41.67532227 -19.16259766 40.65283203 C-17.88634124 37.74065181 -16.64854255 34.81488067 -15.4375 31.875 C-14.62513166 29.91661205 -13.8126072 27.95828885 -13 26 C-12.66613281 25.19224121 -12.33226562 24.38448242 -11.98828125 23.55224609 C-10.8129833 20.71879528 -9.62593546 17.89046291 -8.4375 15.0625 C-8.06101318 14.14903809 -7.68452637 13.23557617 -7.29663086 12.29443359 C-5.33664181 7.65563521 -3.45698065 3.75486107 0 0 Z " fill="#6C0795" transform="translate(233,78)"/>
<path d="M0 0 C8.68388504 -0.04631461 17.36772763 -0.08186471 26.05170918 -0.10362434 C30.08391491 -0.1140672 34.11603622 -0.12823551 38.14819336 -0.15087891 C42.03852863 -0.17258947 45.92878264 -0.18456484 49.81917381 -0.18975449 C51.30435656 -0.19345346 52.7895348 -0.20067654 54.274683 -0.21146011 C56.35289797 -0.22595148 58.43077594 -0.22797896 60.5090332 -0.22705078 C61.69261917 -0.231492 62.87620514 -0.23593323 64.09565735 -0.24050903 C67 0 67 0 70 2 C69.20264435 2.00586624 68.4052887 2.01173248 67.58377075 2.01777649 C60.07894682 2.07561797 52.57445815 2.14764452 45.06993294 2.23571491 C41.21151939 2.28049253 37.35321323 2.31973184 33.49462891 2.34643555 C29.77266501 2.37239553 26.05111276 2.41274469 22.32940292 2.46318626 C20.90765366 2.47990476 19.48583311 2.49138794 18.06399918 2.49761391 C16.07656914 2.50720011 14.08926678 2.53692451 12.10205078 2.56762695 C10.96953888 2.57873001 9.83702698 2.58983307 8.67019653 2.60127258 C7.34844925 2.79864265 7.34844925 2.79864265 6 3 C5.01 4.485 5.01 4.485 4 6 C4.80404463 9.1628485 4.80404463 9.1628485 6 12 C6.66 11.67 7.32 11.34 8 11 C8.93065133 13.60582371 9.14917407 14.64198224 8.0625 17.25 C7.711875 17.8275 7.36125 18.405 7 19 C7 18.01 7 17.02 7 16 C6.01 15.67 5.02 15.34 4 15 C2.578125 12.63671875 2.578125 12.63671875 1.25 9.6875 C0.80140625 8.72199219 0.3528125 7.75648437 -0.109375 6.76171875 C-1.0612352 3.81011716 -0.86932159 2.8589069 0 0 Z " fill="#E01C97" transform="translate(10,72)"/>
<path d="M0 0 C20.79 0 41.58 0 63 0 C62.67 0.66 62.34 1.32 62 2 C56.72 1.67 51.44 1.34 46 1 C45.67 1.66 45.34 2.32 45 3 C40.05554183 3.99266123 35.21921381 4.13503333 30.1875 4.125 C28.88167969 4.12757812 27.57585938 4.13015625 26.23046875 4.1328125 C23 4 23 4 21 3 C19.88625 3.2784375 19.88625 3.2784375 18.75 3.5625 C15.31956574 4.1082509 13.19028276 3.26127458 10 2 C9.67 2.33 9.34 2.66 9 3 C7.33382885 3.04063832 5.66611905 3.042721 4 3 C4 2.34 4 1.68 4 1 C3.34 1 2.68 1 2 1 C2 1.66 2 2.32 2 3 C1.34 3 0.68 3 0 3 C0 2.01 0 1.02 0 0 Z " fill="#FA099F" transform="translate(17,74)"/>
<path d="M0 0 C2 1 2 1 3.125 3.3125 C4 6 4 6 4 10 C4.66 10 5.32 10 6 10 C6.25692627 10.6297876 6.51385254 11.2595752 6.77856445 11.90844727 C7.95591322 14.79338897 9.13419936 17.67794695 10.3125 20.5625 C10.71662109 21.55314453 11.12074219 22.54378906 11.53710938 23.56445312 C12.32750693 25.49867805 13.12056731 27.43181734 13.91650391 29.36376953 C14.58338326 30.986339 15.24344868 32.61175309 15.89208984 34.24169922 C17.15149491 37.79036645 17.15149491 37.79036645 20 40 C20.13140381 39.42475586 20.26280762 38.84951172 20.39819336 38.25683594 C20.99045774 36.03578446 21.74537973 34.01108866 22.62890625 31.890625 C22.94150391 31.13652344 23.25410156 30.38242188 23.57617188 29.60546875 C23.90166016 28.82816406 24.22714844 28.05085938 24.5625 27.25 C24.89185547 26.45722656 25.22121094 25.66445312 25.56054688 24.84765625 C26.37119716 22.89739615 27.18526486 20.94855716 28 19 C29.22660322 22.67980967 28.28114942 23.77720351 26.703125 27.1484375 C25.69832496 29.79441095 25.79571947 32.20816603 26 35 C25.34 35 24.68 35 24 35 C23.67 35.66 23.34 36.32 23 37 C23.66 37 24.32 37 25 37 C25.33 37.99 25.66 38.98 26 40 C19.25 44 19.25 44 17 44 C15.21996514 39.9114584 13.44189643 35.82206876 11.66552734 31.73193359 C11.06285723 30.34498878 10.45968047 28.95826399 9.85595703 27.57177734 C7.88907033 23.05413542 5.93725358 18.53043728 4 14 C3.3493457 12.48164551 3.3493457 12.48164551 2.68554688 10.93261719 C2.32009766 10.05508789 1.95464844 9.17755859 1.578125 8.2734375 C1.1126123 7.16234619 1.1126123 7.16234619 0.63769531 6.02880859 C0 4 0 4 0 0 Z " fill="#100719" transform="translate(141,205)"/>
<path d="M0 0 C2.475 0.99 2.475 0.99 5 2 C5 2.66 5 3.32 5 4 C6.55705194 5.57840572 6.55705194 5.57840572 8.5 7.125 C9.1496875 7.66382813 9.799375 8.20265625 10.46875 8.7578125 C10.9740625 9.16773438 11.479375 9.57765625 12 10 C11.67 10.66 11.34 11.32 11 12 C10.34 12 9.68 12 9 12 C9 12.66 9 13.32 9 14 C10.32 14.66 11.64 15.32 13 16 C12.67 16.33 12.34 16.66 12 17 C12.66 17.33 13.32 17.66 14 18 C13.67 18.99 13.34 19.98 13 21 C14.33700035 23.58944746 14.33700035 23.58944746 16 26 C16.33 26.66 16.66 27.32 17 28 C17.99 28.33 18.98 28.66 20 29 C19.6875 30.875 19.6875 30.875 19 33 C18.01 33.66 17.02 34.32 16 35 C11.61855833 26.44686653 7.40099384 17.84681598 3.5 9.0625 C3.15001953 8.27568848 2.80003906 7.48887695 2.43945312 6.67822266 C0 1.1354612 0 1.1354612 0 0 Z " fill="#E10EBD" transform="translate(71,212)"/>
<path d="M0 0 C0.66 0 1.32 0 2 0 C2.66 1.32 3.32 2.64 4 4 C4.66 3.34 5.32 2.68 6 2 C8 5 8 5 7.8125 8 C7.5883896 13.48480727 10.58629865 18.23293983 13 23 C13.66 22.34 14.32 21.68 15 21 C16.47033252 23.94066505 16 26.74474326 16 30 C16.7763932 33.0745356 16.7763932 33.0745356 19 35 C19.2165625 35.9590625 19.2165625 35.9590625 19.4375 36.9375 C20.11393508 39.41776198 21.09307338 40.32190458 23 42 C23.66 42.66 24.32 43.32 25 44 C21.73166704 43.72763892 20.33758524 43.36072617 18.0625 40.9296875 C15.66978168 37.53093989 13.96115765 34.08767623 12.25 30.3125 C11.91291016 29.5807959 11.57582031 28.8490918 11.22851562 28.09521484 C10.14462252 25.73359007 9.07227892 23.36691764 8 21 C7.62166016 20.1745166 7.24332031 19.3490332 6.85351562 18.49853516 C5.7285871 16.0438418 4.61260551 13.58530026 3.5 11.125 C3.14969727 10.35841064 2.79939453 9.59182129 2.43847656 8.80200195 C0 3.34735335 0 3.34735335 0 0 Z " fill="#CC10D0" transform="translate(106,287)"/>
<path d="M0 0 C0.66 0 1.32 0 2 0 C3.86561494 4.15641298 5.71645948 8.31897989 7.55419922 12.48779297 C8.18076022 13.90362029 8.81124847 15.31771666 9.44580078 16.72998047 C10.35979703 18.76602548 11.25926055 20.8079781 12.15625 22.8515625 C12.44060913 23.47680817 12.72496826 24.10205383 13.01794434 24.74624634 C14.71271565 28.65430609 15.29568548 31.75236432 15 36 C13.02 35.67 11.04 35.34 9 35 C9 34.01 9 33.02 9 32 C9.66 32 10.32 32 11 32 C11 30.68 11 29.36 11 28 C10.01 27.67 9.02 27.34 8 27 C8.3403125 26.195625 8.3403125 26.195625 8.6875 25.375 C9.13704769 21.95843758 7.56428205 20.00342153 6 17 C6 15.68 6 14.36 6 13 C4.35 13.33 2.7 13.66 1 14 C1 11.03 1 8.06 1 5 C0.34 5 -0.32 5 -1 5 C-0.67 3.35 -0.34 1.7 0 0 Z " fill="#CF0EC7" transform="translate(122,168)"/>
<path d="M0 0 C1.50939651 0.00280975 1.50939651 0.00280975 3.04928589 0.00567627 C5.17579467 0.0123843 7.30229137 0.0262739 9.42871094 0.046875 C12.64790622 0.0778195 15.86660864 0.08783212 19.0859375 0.09375 C28.94346817 0.13166137 38.75234123 0.17553848 48.5546875 1.328125 C48.5546875 1.658125 48.5546875 1.988125 48.5546875 2.328125 C28.4246875 2.328125 8.2946875 2.328125 -12.4453125 2.328125 C-12.4453125 2.988125 -12.4453125 3.648125 -12.4453125 4.328125 C-11.4553125 4.658125 -10.4653125 4.988125 -9.4453125 5.328125 C-10.4353125 5.328125 -11.4253125 5.328125 -12.4453125 5.328125 C-12.7753125 5.988125 -13.1053125 6.648125 -13.4453125 7.328125 C-13.4453125 6.668125 -13.4453125 6.008125 -13.4453125 5.328125 C-15.0953125 5.988125 -16.7453125 6.648125 -18.4453125 7.328125 C-17.46034231 4.47171146 -16.55610056 3.40171691 -14.01220703 1.71191406 C-9.23916029 -0.13980592 -5.0731278 -0.06528382 0 0 Z " fill="#511276" transform="translate(252.4453125,70.671875)"/>
<path d="M0 0 C2.78699268 3.3326576 4.40457476 6.9417086 6.03125 10.92578125 C6.30843872 11.59159714 6.58562744 12.25741302 6.87121582 12.94340515 C7.75281812 15.06426809 8.6265747 17.1882583 9.5 19.3125 C10.08670982 20.72873521 10.67394439 22.14475315 11.26171875 23.56054688 C12.09468114 25.56729963 12.92692131 27.5743129 13.75500488 29.58308411 C15.26787213 33.26098282 15.26787213 33.26098282 16.85571289 36.90682983 C18.14703651 39.79297593 19 41.7982824 19 45 C18.01 45 17.02 45 16 45 C12.55580866 35.58997722 12.55580866 35.58997722 13 31 C12.34 31 11.68 31 11 31 C11 29.68 11 28.36 11 27 C10.01 27 9.02 27 8 27 C7.87882813 26.36191406 7.75765625 25.72382813 7.6328125 25.06640625 C7.46523437 24.24011719 7.29765625 23.41382813 7.125 22.5625 C6.88136719 21.32693359 6.88136719 21.32693359 6.6328125 20.06640625 C6.42398438 19.38449219 6.21515625 18.70257813 6 18 C5.34 17.67 4.68 17.34 4 17 C2.37265234 13.65489648 2 11.81164166 2 8 C1.34 7.67 0.68 7.34 0 7 C0 4.69 0 2.38 0 0 Z " fill="#BF12CC" transform="translate(139,205)"/>
<path d="M0 0 C1.26237731 2.52475462 1.09856404 4.31200466 1.0625 7.125 C1.05347656 8.03507812 1.04445312 8.94515625 1.03515625 9.8828125 C1.02355469 10.58148438 1.01195312 11.28015625 1 12 C0.01 12.33 -0.98 12.66 -2 13 C-2.45375 13.9075 -2.9075 14.815 -3.375 15.75 C-5 19 -5 19 -7.4375 21.3125 C-10.7652821 24.80261293 -12.26538723 28.55202647 -14 33 C-15 31 -15 31 -14.27490234 28.6809082 C-12.98407526 25.554032 -11.69052673 22.4290891 -10.375 19.3125 C-9.93542969 18.23548828 -9.49585938 17.15847656 -9.04296875 16.04882812 C-6.56749382 10.12874073 -3.98946232 5.03363567 0 0 Z " fill="#7D08AC" transform="translate(233,78)"/>
<path d="M0 0 C0.99 0 1.98 0 3 0 C2.57887997 5.05344033 1.38075949 8.48793418 -1.01171875 12.93359375 C-2.56713656 16.18583098 -3.24642922 19.48333635 -4 23 C-4.66 23 -5.32 23 -6 23 C-6.103125 23.763125 -6.20625 24.52625 -6.3125 25.3125 C-7.04364039 28.17059424 -7.76951913 29.15742885 -10 31 C-11.36929451 26.50711588 -10.55160229 24.0671378 -8.69140625 19.82421875 C-8.19189453 18.66728516 -7.69238281 17.51035156 -7.17773438 16.31835938 C-6.64470703 15.12017578 -6.11167969 13.92199219 -5.5625 12.6875 C-5.02678051 11.45821076 -4.49226176 10.22839749 -3.95898438 8.99804688 C-2.65104901 5.9933305 -1.33107406 2.99452057 0 0 Z " fill="#A10AD2" transform="translate(214,121)"/>
<path d="M0 0 C3.85520266 3.85520266 5.5497353 9.44772394 7.75 14.375 C8.54857422 16.09976563 8.54857422 16.09976563 9.36328125 17.859375 C9.85699219 18.96539062 10.35070312 20.07140625 10.859375 21.2109375 C11.31795898 22.22462402 11.77654297 23.23831055 12.24902344 24.28271484 C13 27 13 27 12.13378906 29.36181641 C11.75963867 29.90241699 11.38548828 30.44301758 11 31 C10.67 30.34 10.34 29.68 10 29 C9.01773438 28.61714844 9.01773438 28.61714844 8.015625 28.2265625 C6 27 6 27 5.171875 24.3984375 C5.03265625 23.40070313 4.8934375 22.40296875 4.75 21.375 C4.60046875 20.37210938 4.4509375 19.36921875 4.296875 18.3359375 C4.14992188 17.17964844 4.14992188 17.17964844 4 16 C3.01 15.67 2.02 15.34 1 15 C1.01160156 14.41992188 1.02320312 13.83984375 1.03515625 13.2421875 C1.08762174 8.7001754 0.91751063 4.47286431 0 0 Z " fill="#E410B4" transform="translate(92,97)"/>
<path d="M0 0 C0 5.94 0 11.88 0 18 C-3.89499865 15.07875101 -4.6286783 14.35845111 -6.25 10.125 C-6.75273437 8.86042969 -6.75273437 8.86042969 -7.265625 7.5703125 C-8.02358395 4.91745619 -8.13766548 2.74347629 -8 0 C-6 -1 -6 -1 0 0 Z " fill="#0D0C19" transform="translate(301,151)"/>
<path d="M0 0 C1.09898702 3.29696105 0.87124444 4.40494903 0.0625 7.6875 C-0.13214844 8.49574219 -0.32679688 9.30398437 -0.52734375 10.13671875 C-0.68332031 10.75160156 -0.83929688 11.36648437 -1 12 C-1.66 12 -2.32 12 -3 12 C-3.66 13.98 -4.32 15.96 -5 18 C-4.34 18.33 -3.68 18.66 -3 19 C-3.99 19.33 -4.98 19.66 -6 20 C-5.938125 21.216875 -5.87625 22.43375 -5.8125 23.6875 C-5.79177176 27.57750046 -6.62724186 29.83632249 -9 33 C-9.495 31.515 -9.495 31.515 -10 30 C-11.32 32.31 -12.64 34.62 -14 37 C-15 35 -15 35 -14.16723633 32.42138672 C-13.72661865 31.35162598 -13.28600098 30.28186523 -12.83203125 29.1796875 C-12.35056641 28.0040625 -11.86910156 26.8284375 -11.37304688 25.6171875 C-11.11644287 25.00198242 -10.85983887 24.38677734 -10.59545898 23.75292969 C-9.82559315 21.90640398 -9.06795833 20.05479411 -8.31054688 18.203125 C-5.75615629 12.00779988 -3.1033461 5.94005626 0 0 Z " fill="#6C0784" transform="translate(185,187)"/>
<path d="M0 0 C1.31157516 2.62315032 0.89649988 4.23033436 0.5625 7.125 C0.46066406 8.03507813 0.35882813 8.94515625 0.25390625 9.8828125 C0.17011719 10.58148438 0.08632812 11.28015625 0 12 C-0.99 12 -1.98 12 -3 12 C-3.02578125 12.75925781 -3.0515625 13.51851562 -3.078125 14.30078125 C-3.13484375 15.29464844 -3.1915625 16.28851563 -3.25 17.3125 C-3.29640625 18.29863281 -3.3428125 19.28476563 -3.390625 20.30078125 C-4 23 -4 23 -5.859375 24.85546875 C-8 26 -8 26 -11 26 C-10 23 -10 23 -9 22 C-8.81244141 20.70835937 -8.81244141 20.70835937 -8.62109375 19.390625 C-7.92412066 15.58576563 -6.61509357 12.26474419 -5.0625 8.75 C-4.66514648 7.81414062 -4.66514648 7.81414062 -4.25976562 6.859375 C-3.07776118 4.13753846 -2.11695677 2.11695677 0 0 Z " fill="#AE0ACF" transform="translate(175,216)"/>
<path d="M0 0 C0.99 0 1.98 0 3 0 C3 0.66 3 1.32 3 2 C3.66 2.33 4.32 2.66 5 3 C4.67 4.65 4.34 6.3 4 8 C5.32 7.67 6.64 7.34 8 7 C11 13.625 11 13.625 11 17 C11.99 17.66 12.98 18.32 14 19 C14 19.66 14 20.32 14 21 C12.35 21 10.7 21 9 21 C7.67997444 18.44113496 6.36886218 15.87832932 5.0625 13.3125 C4.68931641 12.59126953 4.31613281 11.87003906 3.93164062 11.12695312 C2.06034761 7.43494258 0.51730444 4.16306904 0 0 Z " fill="#DD12C8" transform="translate(88,248)"/>
<path d="M0 0 C1.24153433 3.724603 0.47452539 4.47752269 -1 8 C-1.37593066 9.9924325 -1.71979545 11.9918674 -2 14 C-1.01 13.67 -0.02 13.34 1 13 C1 13.66 1 14.32 1 15 C0.34 15 -0.32 15 -1 15 C-0.67 15.99 -0.34 16.98 0 18 C-1.4375 20.6875 -1.4375 20.6875 -3 23 C-3.66 22.34 -4.32 21.68 -5 21 C-5.66 21.99 -6.32 22.98 -7 24 C-7.66 24 -8.32 24 -9 24 C-9.33 24.66 -9.66 25.32 -10 26 C-9.385789 22.38549563 -8.39633734 19.27609839 -6.93359375 15.91796875 C-6.53076172 14.98662109 -6.12792969 14.05527344 -5.71289062 13.09570312 C-5.29201172 12.13599609 -4.87113281 11.17628906 -4.4375 10.1875 C-4.01275391 9.20845703 -3.58800781 8.22941406 -3.15039062 7.22070312 C-2.10460494 4.81187093 -1.05435216 2.40509197 0 0 Z " fill="#650684" transform="translate(203,144)"/>
<path d="M0 0 C0.99 0 1.98 0 3 0 C5 3 5 3 6 5 C5.67 5.66 5.34 6.32 5 7 C6.32 7.33 7.64 7.66 9 8 C8.34 10.64 7.68 13.28 7 16 C4.67738148 13.67738148 3.73123569 11.54859789 2.375 8.5625 C1.92898437 7.59441406 1.48296875 6.62632812 1.0234375 5.62890625 C0 3 0 3 0 0 Z " fill="#DA10CE" transform="translate(98,270)"/>
<path d="M0 0 C1.22660322 3.67980967 0.28114942 4.77720351 -1.296875 8.1484375 C-2.30167504 10.79441095 -2.20428053 13.20816603 -2 16 C-2.66 16 -3.32 16 -4 16 C-4.33 16.66 -4.66 17.32 -5 18 C-4.34 18 -3.68 18 -3 18 C-2.67 18.99 -2.34 19.98 -2 21 C-3.98 21.66 -5.96 22.32 -8 23 C-8.27438322 18.89166752 -7.4769447 16.30946136 -5.6875 12.625 C-5.23375 11.67238281 -4.78 10.71976563 -4.3125 9.73828125 C-3.879375 8.83464844 -3.44625 7.93101562 -3 7 C-1.97599673 4.67599259 -0.98785993 2.33966825 0 0 Z " fill="#55066A" transform="translate(169,224)"/>
<path d="M0 0 C-0.33 0.66 -0.66 1.32 -1 2 C-5.99447277 3.01161932 -10.85497674 3.10747808 -15.9375 3.0625 C-16.62134766 3.05798828 -17.30519531 3.05347656 -18.00976562 3.04882812 C-19.67321604 3.0371956 -21.3366205 3.01926694 -23 3 C-23.33 2.34 -23.66 1.68 -24 1 C-15.9874678 -0.03387512 -8.07094823 -0.10466648 0 0 Z " fill="#F0119E" transform="translate(63,75)"/>
<path d="M0 0 C0.66 0.99 1.32 1.98 2 3 C1.34 3.86625 0.68 4.7325 0 5.625 C-2.12695385 9.21423463 -2.38790972 10.92694798 -2 15 C-2.99 15.495 -2.99 15.495 -4 16 C-4 15.34 -4 14.68 -4 14 C-4.99 13.67 -5.98 13.34 -7 13 C-6.50426026 7.42292796 -6.50426026 7.42292796 -4.0625 5.375 C-3.381875 4.92125 -2.70125 4.4675 -2 4 C-0.7483533 1.91665365 -0.7483533 1.91665365 0 0 Z " fill="#AA08D0" transform="translate(187,192)"/>
<path d="M0 0 C0.73605469 0.01353516 1.47210938 0.02707031 2.23046875 0.04101562 C4.02896743 0.07605131 5.82708422 0.12984712 7.625 0.1875 C7.625 0.5175 7.625 0.8475 7.625 1.1875 C1.65825384 2.51344359 -4.30083615 2.2759587 -10.375 2.1875 C-10.375 2.8475 -10.375 3.5075 -10.375 4.1875 C-9.385 4.5175 -8.395 4.8475 -7.375 5.1875 C-8.365 5.1875 -9.355 5.1875 -10.375 5.1875 C-10.705 5.8475 -11.035 6.5075 -11.375 7.1875 C-11.375 6.5275 -11.375 5.8675 -11.375 5.1875 C-13.025 5.8475 -14.675 6.5075 -16.375 7.1875 C-15.36118914 4.2474485 -14.47533228 3.25112535 -11.8125 1.5625 C-7.65473839 -0.10060465 -4.41360785 -0.15563355 0 0 Z " fill="#350951" transform="translate(250.375,70.8125)"/>
<path d="M0 0 C1.09898702 3.29696105 0.87124444 4.40494903 0.0625 7.6875 C-0.13214844 8.49574219 -0.32679688 9.30398437 -0.52734375 10.13671875 C-0.68332031 10.75160156 -0.83929688 11.36648437 -1 12 C-1.66 12 -2.32 12 -3 12 C-3.99 13.98 -4.98 15.96 -6 18 C-6.33 17.34 -6.66 16.68 -7 16 C-6.11588959 13.42085672 -5.1740129 10.94813753 -4.125 8.4375 C-3.84269531 7.73947266 -3.56039062 7.04144531 -3.26953125 6.32226562 C-1.1541718 1.1541718 -1.1541718 1.1541718 0 0 Z " fill="#430657" transform="translate(185,187)"/>
<path d="M0 0 C2.29160319 -0.02692484 4.58329546 -0.04636124 6.875 -0.0625 C8.15117188 -0.07410156 9.42734375 -0.08570312 10.7421875 -0.09765625 C14 0 14 0 16 1 C15.67 1.66 15.34 2.32 15 3 C9.55072464 4.27536232 9.55072464 4.27536232 7 3 C4.67085177 2.63858045 2.33746522 2.30300475 0 2 C0 1.34 0 0.68 0 0 Z " fill="#ED0FA3" transform="translate(65,75)"/>
<path d="M0 0 C1.41873369 2.83746738 0.60615688 4.40387752 -0.1875 7.4375 C-0.42855469 8.40558594 -0.66960937 9.37367188 -0.91796875 10.37109375 C-2.13754097 13.33416995 -3.30239433 14.35239405 -6 16 C-5.52412884 9.97229862 -2.80277043 5.23321711 0 0 Z " fill="#410757" transform="translate(192,171)"/>
<path d="M0 0 C0.33 0 0.66 0 1 0 C1.75 2.75 1.75 2.75 2 6 C0.7151049 7.38007251 -0.63015802 8.70420353 -2 10 C-3.51233635 12.92792392 -4.77207514 15.94325089 -6 19 C-7 17 -7 17 -6.47094727 15.21240234 C-6.17244873 14.51066895 -5.8739502 13.80893555 -5.56640625 13.0859375 C-5.24736328 12.32539062 -4.92832031 11.56484375 -4.59960938 10.78125 C-4.25736328 9.9871875 -3.91511719 9.193125 -3.5625 8.375 C-3.22412109 7.57320313 -2.88574219 6.77140625 -2.53710938 5.9453125 C-1.69833222 3.96060036 -0.85004755 1.97991125 0 0 Z " fill="#2E0444" transform="translate(225,92)"/>
<path d="M0 0 C1 3 1 3 -0.0625 5.625 C-2 8 -2 8 -5.0625 8.9375 C-6.5165625 8.9684375 -6.5165625 8.9684375 -8 9 C-8.66 8.34 -9.32 7.68 -10 7 C-9.16855469 6.61908203 -9.16855469 6.61908203 -8.3203125 6.23046875 C-7.59585938 5.88628906 -6.87140625 5.54210937 -6.125 5.1875 C-5.40570313 4.85105469 -4.68640625 4.51460938 -3.9453125 4.16796875 C-1.69457194 3.00532903 -1.69457194 3.00532903 0 0 Z " fill="#130622" transform="translate(190,325)"/>
<path d="M0 0 C3.42931954 3.7559214 4.56429083 8.23466745 6 13 C5.34 13.66 4.68 14.32 4 15 C3.67 13.02 3.34 11.04 3 9 C2.34 9 1.68 9 1 9 C0.67 6.03 0.34 3.06 0 0 Z " fill="#D519B3" transform="translate(99,113)"/>
<path d="M0 0 C2.89932357 2.39509338 3.50168276 4.31245243 4 8 C3.01 8.66 2.02 9.32 1 10 C0.01 7.03 -0.98 4.06 -2 1 C-1.34 0.67 -0.68 0.34 0 0 Z " fill="#D808C5" transform="translate(95,255)"/>
<path d="M0 0 C0.33 0 0.66 0 1 0 C3.41698473 7.39312977 3.41698473 7.39312977 2 11 C1.67 11.99 1.34 12.98 1 14 C0.67 12.68 0.34 11.36 0 10 C-0.66 10 -1.32 10 -2 10 C-1.34 6.7 -0.68 3.4 0 0 Z " fill="#8D09BD" transform="translate(217,111)"/>
<path d="M0 0 C2 2 2 2 2.125 5.125 C2.08375 6.07375 2.0425 7.0225 2 8 C1.01 8.33 0.02 8.66 -1 9 C-1.66 6.36 -2.32 3.72 -3 1 C-2.01 1.33 -1.02 1.66 0 2 C0 1.34 0 0.68 0 0 Z " fill="#F60D9F" transform="translate(32,114)"/>
<path d="M0 0 C0.33 0 0.66 0 1 0 C1.33 2.64 1.66 5.28 2 8 C0.02 8.99 -1.96 9.98 -4 11 C-2.7874262 7.27566618 -1.49140021 3.62197194 0 0 Z " fill="#150621" transform="translate(222,254)"/>
<path d="M0 0 C1.68178661 2.52267991 2.90106742 4.81091823 4.125 7.5625 C4.47820312 8.34753906 4.83140625 9.13257813 5.1953125 9.94140625 C6 12 6 12 6 14 C5.34 14 4.68 14 4 14 C3.32471777 12.42032193 2.66010306 10.83608097 2 9.25 C1.62875 8.36828125 1.2575 7.4865625 0.875 6.578125 C0 4 0 4 0 0 Z " fill="#C51DC0" transform="translate(127,177)"/>
<path d="M0 0 C2.10633718 1.70828921 2.93801608 2.52148416 3.29296875 5.26171875 C3.25816406 6.06222656 3.22335938 6.86273438 3.1875 7.6875 C3.16042969 8.49574219 3.13335937 9.30398438 3.10546875 10.13671875 C3.07066406 10.75160156 3.03585938 11.36648438 3 12 C0.89366282 10.29171079 0.06198392 9.47851584 -0.29296875 6.73828125 C-0.25816406 5.93777344 -0.22335938 5.13726562 -0.1875 4.3125 C-0.16042969 3.50425781 -0.13335937 2.69601562 -0.10546875 1.86328125 C-0.07066406 1.24839844 -0.03585938 0.63351562 0 0 Z " fill="#CC06CC" transform="translate(111,289)"/>
<path d="M0 0 C2.64465038 3.1254959 3.84414715 6.08788267 5 10 C4.01 10.495 4.01 10.495 3 11 C0.84694043 7.14243493 -0.39253254 4.44870215 0 0 Z " fill="#270827" transform="translate(89,253)"/>
<path d="M0 0 C2 4 2 4 1.125 6.75 C0.75375 7.4925 0.3825 8.235 0 9 C-0.99 9 -1.98 9 -3 9 C-2.01 6.03 -1.02 3.06 0 0 Z " fill="#9D0EC8" transform="translate(194,168)"/>
<path d="M0 0 C2.64465038 3.1254959 3.84414715 6.08788267 5 10 C4.34 10.66 3.68 11.32 3 12 C3 10.68 3 9.36 3 8 C2.01 7.67 1.02 7.34 0 7 C0 4.69 0 2.38 0 0 Z " fill="#E31AB4" transform="translate(87,86)"/>
<path d="M0 0 C1.96217707 2.9432656 3.58240698 5.75978738 5 9 C4.67 9.99 4.34 10.98 4 12 C0.99801155 8.99801155 0.04007463 7.04194047 -0.125 2.75 C-0.08375 1.8425 -0.0425 0.935 0 0 Z " fill="#250721" transform="translate(67,204)"/>
<path d="M0 0 C2 4 2 4 2 8 C0.35 8.33 -1.3 8.66 -3 9 C-2.01 6.03 -1.02 3.06 0 0 Z " fill="#160526" transform="translate(270,147)"/>
<path d="M0 0 C1.31223496 3.93670488 0.24296256 6.12488144 -1 10 C-1.66 10 -2.32 10 -3 10 C-3.33 10.66 -3.66 11.32 -4 12 C-3.33501617 7.61110675 -1.81242323 4.0188515 0 0 Z " fill="#39064F" transform="translate(197,158)"/>
<path d="M0 0 C1.32 0.33 2.64 0.66 4 1 C3.67 1.99 3.34 2.98 3 4 C3.33 4.639375 3.66 5.27875 4 5.9375 C5.2290175 8.4723486 4.7871552 9.38161568 4 12 C3.32645501 10.56570999 2.66140299 9.12742943 2 7.6875 C1.62875 6.88699219 1.2575 6.08648437 0.875 5.26171875 C0 3 0 3 0 0 Z " fill="#E81B9F" transform="translate(26,111)"/>
<path d="M0 0 C0.33 0 0.66 0 1 0 C0.67 2.97 0.34 5.94 0 9 C-0.99 9 -1.98 9 -3 9 C-2.01 6.03 -1.02 3.06 0 0 Z " fill="#160725" transform="translate(300,78)"/>
<path d="M0 0 C0.66 0 1.32 0 2 0 C4.04169485 2.90548882 5 4.40142046 5 8 C4.01 8 3.02 8 2 8 C0.74335022 5.09399739 0 3.20395416 0 0 Z " fill="#D30DD1" transform="translate(106,287)"/>
<path d="M0 0 C1.5 1.125 1.5 1.125 3 3 C3.1875 6.1875 3.1875 6.1875 3 9 C2.01 8.67 1.02 8.34 0 8 C0 5.36 0 2.72 0 0 Z " fill="#E512BF" transform="translate(104,126)"/>
<path d="M0 0 C1.10844919 3.32534757 0.84454356 5.62182575 0 9 C-0.99 9 -1.98 9 -3 9 C-2.44271087 5.65626525 -1.64826111 2.96687001 0 0 Z " fill="#150625" transform="translate(292,97)"/>
<path d="M0 0 C0.33 0.99 0.66 1.98 1 3 C1.66 3 2.32 3 3 3 C2.67 4.65 2.34 6.3 2 8 C0.68 7.34 -0.64 6.68 -2 6 C-1.34 4.02 -0.68 2.04 0 0 Z " fill="#180826" transform="translate(196,312)"/>
<path d="M0 0 C0.66 0.33 1.32 0.66 2 1 C2 2.32 2 3.64 2 5 C1.34 5 0.68 5 0 5 C-0.5625 3.0625 -0.5625 3.0625 -1 1 C-0.67 0.67 -0.34 0.34 0 0 Z M-5 2 C-3.68 2 -2.36 2 -1 2 C-1.33 2.99 -1.66 3.98 -2 5 C-2.99 4.67 -3.98 4.34 -5 4 C-5 3.34 -5 2.68 -5 2 Z " fill="#A505DC" transform="translate(217,257)"/>
<path d="M0 0 C0.33 0 0.66 0 1 0 C0.67 2.64 0.34 5.28 0 8 C-0.99 8 -1.98 8 -3 8 C-2.37240135 5.07120629 -1.41377341 2.63904371 0 0 Z " fill="#A70CDF" transform="translate(222,249)"/>
<path d="M0 0 C1.4606285 2.64738916 2 3.89448334 2 7 C0.02 7.99 0.02 7.99 -2 9 C-1.41196203 5.97580475 -0.77321882 2.98241547 0 0 Z " fill="#AC04DC" transform="translate(197,163)"/>
<path d="M0 0 C0.66 0.66 1.32 1.32 2 2 C1.67028521 5.29714793 1.3773161 6.6226839 -1 9 C-1.33 7.35 -1.66 5.7 -2 4 C-1.34 4 -0.68 4 0 4 C0 2.68 0 1.36 0 0 Z " fill="#090B10" transform="translate(283,120)"/>
<path d="M0 0 C0.66 0.33 1.32 0.66 2 1 C1.6875 2.875 1.6875 2.875 1 5 C0.01 5.66 -0.98 6.32 -2 7 C-2.99 6.67 -3.98 6.34 -5 6 C-4.67 5.34 -4.34 4.68 -4 4 C-3.01 4 -2.02 4 -1 4 C-0.67 2.68 -0.34 1.36 0 0 Z " fill="#AA09E4" transform="translate(187,324)"/>
<path d="M0 0 C0.99 0.33 1.98 0.66 3 1 C2.34 3.64 1.68 6.28 1 9 C-0.61949011 6.42786866 -1.04408751 5.32330841 -0.625 2.25 C-0.41875 1.5075 -0.2125 0.765 0 0 Z " fill="#CC11C0" transform="translate(104,277)"/>
<path d="M0 0 C0.66 0 1.32 0 2 0 C1.50168276 3.68754757 0.89932357 5.60490662 -2 8 C-1.125 1.125 -1.125 1.125 0 0 Z " fill="#A30DE2" transform="translate(260,164)"/>
<path d="M0 0 C0.33 1.32 0.66 2.64 1 4 C1.99 3.67 2.98 3.34 4 3 C4 3.66 4 4.32 4 5 C3.34 5 2.68 5 2 5 C1.67 5.99 1.34 6.98 1 8 C-1 6 -1 6 -2 4 C-1.0625 1.875 -1.0625 1.875 0 0 Z " fill="#970CC4" transform="translate(200,154)"/>
<path d="M0 0 C2.50298434 2.93828597 3.46930939 5.17902761 4 9 C3.01 9 2.02 9 1 9 C0.67 6.03 0.34 3.06 0 0 Z " fill="#DA1CB4" transform="translate(95,104)"/>
<path d="M0 0 C1.85776765 3.13498292 2.20140476 5.37471432 2 9 C-0.15377564 6.37801226 -1.40072174 4.35595828 -2 1 C-1.34 0.67 -0.68 0.34 0 0 Z " fill="#DC14BB" transform="translate(83,233)"/>
<path d="M0 0 C0.33 0 0.66 0 1 0 C1.25 5.625 1.25 5.625 -1 9 C-1.66 9 -2.32 9 -3 9 C-2.01 6.03 -1.02 3.06 0 0 Z " fill="#140621" transform="translate(276,133)"/>
<path d="M0 0 C2.31 0.33 4.62 0.66 7 1 C6.01 1.33 5.02 1.66 4 2 C3.67 2.66 3.34 3.32 3 4 C3 3.34 3 2.68 3 2 C1.35 2.66 -0.3 3.32 -2 4 C-1.34 2.68 -0.68 1.36 0 0 Z " fill="#670794" transform="translate(236,74)"/>
</svg>
